<svg width="512" height="512" viewBox="0 0 512 512" fill="none" xmlns="http://www.w3.org/2000/svg">
<circle cx="256" cy="256" r="256" fill="#FCFF71"/>
<circle cx="256" cy="256" r="225" fill="#FEFFBF"/>
<path d="M240.519 364.165C238.125 364.165 235.988 363.396 234.108 361.857C232.227 360.318 231.116 358.352 230.774 355.958L226.927 331.852C223.678 330.655 220.259 329.031 216.669 326.979C213.078 324.927 209.915 322.79 207.18 320.567L185.125 330.826C182.731 331.852 180.337 331.98 177.944 331.21C175.55 330.441 173.669 328.945 172.302 326.722L157.427 300.051C156.059 297.828 155.675 295.52 156.273 293.127C156.872 290.733 158.197 288.767 160.248 287.228L180.765 272.097C180.423 270.558 180.209 268.806 180.124 266.84C180.038 264.874 179.995 263.121 179.995 261.583C179.995 260.044 180.038 258.291 180.124 256.325C180.209 254.359 180.423 252.607 180.765 251.068L160.248 235.937C158.197 234.398 156.872 232.432 156.273 230.038C155.675 227.645 156.059 225.337 157.427 223.114L172.302 196.443C173.669 194.22 175.55 192.724 177.944 191.955C180.337 191.185 182.731 191.313 185.125 192.339L207.18 202.598C209.915 200.375 213.078 198.238 216.669 196.186C220.259 194.135 223.678 192.596 226.927 191.57L230.774 167.207C231.116 164.813 232.227 162.847 234.108 161.308C235.988 159.769 238.125 159 240.519 159H270.781C273.175 159 275.312 159.769 277.192 161.308C279.073 162.847 280.184 164.813 280.526 167.207L284.373 191.313C287.622 192.51 291.084 194.092 294.76 196.058C298.435 198.024 301.556 200.204 304.12 202.598L326.175 192.339C328.569 191.313 330.92 191.185 333.228 191.955C335.536 192.724 337.374 194.22 338.742 196.443L353.873 223.114C355.241 225.337 355.625 227.688 355.027 230.167C354.428 232.646 353.103 234.569 351.052 235.937L330.535 250.555C330.877 252.265 331.091 254.103 331.176 256.069C331.262 258.035 331.305 259.873 331.305 261.583C331.305 263.292 331.262 265.087 331.176 266.968C331.091 268.849 330.877 270.644 330.535 272.354L351.052 287.228C353.103 288.596 354.428 290.519 355.027 292.998C355.625 295.477 355.241 297.828 353.873 300.051L338.998 326.722C337.631 328.945 335.75 330.441 333.356 331.21C330.963 331.98 328.569 331.852 326.175 330.826L304.12 320.567C301.385 322.79 298.264 324.97 294.76 327.107C291.255 329.244 287.793 330.826 284.373 331.852L280.526 355.958C280.184 358.352 279.073 360.318 277.192 361.857C275.312 363.396 273.175 364.165 270.781 364.165H240.519ZM255.65 294.922C264.882 294.922 272.747 291.673 279.244 285.176C285.741 278.68 288.989 270.815 288.989 261.583C288.989 252.35 285.741 244.485 279.244 237.989C272.747 231.492 264.882 228.243 255.65 228.243C246.418 228.243 238.553 231.492 232.056 237.989C225.559 244.485 222.311 252.35 222.311 261.583C222.311 270.815 225.559 278.68 232.056 285.176C238.553 291.673 246.418 294.922 255.65 294.922Z" fill="#4D4D4D"/>
<path d="M240.519 358.165C238.125 358.165 235.988 357.396 234.108 355.857C232.227 354.318 231.116 352.352 230.774 349.958L226.927 325.852C223.678 324.655 220.259 323.031 216.669 320.979C213.078 318.927 209.915 316.79 207.18 314.567L185.125 324.826C182.731 325.852 180.337 325.98 177.944 325.21C175.55 324.441 173.669 322.945 172.302 320.722L157.427 294.051C156.059 291.828 155.675 289.52 156.273 287.127C156.872 284.733 158.197 282.767 160.248 281.228L180.765 266.097C180.423 264.558 180.209 262.806 180.124 260.84C180.038 258.874 179.995 257.121 179.995 255.583C179.995 254.044 180.038 252.291 180.124 250.325C180.209 248.359 180.423 246.607 180.765 245.068L160.248 229.937C158.197 228.398 156.872 226.432 156.273 224.038C155.675 221.645 156.059 219.337 157.427 217.114L172.302 190.443C173.669 188.22 175.55 186.724 177.944 185.955C180.337 185.185 182.731 185.313 185.125 186.339L207.18 196.598C209.915 194.375 213.078 192.238 216.669 190.186C220.259 188.135 223.678 186.596 226.927 185.57L230.774 161.207C231.116 158.813 232.227 156.847 234.108 155.308C235.988 153.769 238.125 153 240.519 153H270.781C273.175 153 275.312 153.769 277.192 155.308C279.073 156.847 280.184 158.813 280.526 161.207L284.373 185.313C287.622 186.51 291.084 188.092 294.76 190.058C298.435 192.024 301.556 194.204 304.12 196.598L326.175 186.339C328.569 185.313 330.92 185.185 333.228 185.955C335.536 186.724 337.374 188.22 338.742 190.443L353.873 217.114C355.241 219.337 355.625 221.688 355.027 224.167C354.428 226.646 353.103 228.569 351.052 229.937L330.535 244.555C330.877 246.265 331.091 248.103 331.176 250.069C331.262 252.035 331.305 253.873 331.305 255.583C331.305 257.292 331.262 259.087 331.176 260.968C331.091 262.849 330.877 264.644 330.535 266.354L351.052 281.228C353.103 282.596 354.428 284.519 355.027 286.998C355.625 289.477 355.241 291.828 353.873 294.051L338.998 320.722C337.631 322.945 335.75 324.441 333.356 325.21C330.963 325.98 328.569 325.852 326.175 324.826L304.12 314.567C301.385 316.79 298.264 318.97 294.76 321.107C291.255 323.244 287.793 324.826 284.373 325.852L280.526 349.958C280.184 352.352 279.073 354.318 277.192 355.857C275.312 357.396 273.175 358.165 270.781 358.165H240.519ZM255.65 288.922C264.882 288.922 272.747 285.673 279.244 279.176C285.741 272.68 288.989 264.815 288.989 255.583C288.989 246.35 285.741 238.485 279.244 231.989C272.747 225.492 264.882 222.243 255.65 222.243C246.418 222.243 238.553 225.492 232.056 231.989C225.559 238.485 222.311 246.35 222.311 255.583C222.311 264.815 225.559 272.68 232.056 279.176C238.553 285.673 246.418 288.922 255.65 288.922Z" fill="black"/>
</svg>
