<svg width="600" height="400" viewBox="0 0 600 400" fill="none" xmlns="http://www.w3.org/2000/svg">
<rect width="600" height="400" fill="url(#paint0_radial_0_1)"/>
<path d="M92 215.676C92 213.837 93.47 212.347 95.2834 212.347H172.717C174.53 212.347 176 213.837 176 215.676V220.671C176 222.509 174.53 224 172.717 224H95.2834C93.47 224 92 222.509 92 220.671V215.676Z" fill="#D6D6D6"/>
<path fill-rule="evenodd" clip-rule="evenodd" d="M92 179.329C92 177.491 93.47 176 95.2834 176H172.717C174.53 176 176 177.491 176 179.329V215.954C176 217.793 174.53 219.283 172.717 219.283H95.2834C93.47 219.283 92 217.793 92 215.954V179.329ZM132.221 197.642C132.221 204.537 126.709 210.127 119.909 210.127C113.109 210.127 107.596 204.537 107.596 197.642C107.596 190.746 113.109 185.156 119.909 185.156C126.709 185.156 132.221 190.746 132.221 197.642ZM148.091 210.127C154.891 210.127 160.404 204.537 160.404 197.642C160.404 190.746 154.891 185.156 148.091 185.156C141.291 185.156 135.779 190.746 135.779 197.642C135.779 204.537 141.291 210.127 148.091 210.127Z" fill="white"/>
<path d="M221.372 191H215.736C215.402 189.379 214.819 187.955 213.986 186.727C213.168 185.5 212.168 184.47 210.986 183.636C209.819 182.788 208.524 182.152 207.099 181.727C205.675 181.303 204.19 181.091 202.645 181.091C199.827 181.091 197.274 181.803 194.986 183.227C192.713 184.652 190.902 186.75 189.554 189.523C188.221 192.295 187.554 195.697 187.554 199.727C187.554 203.758 188.221 207.159 189.554 209.932C190.902 212.705 192.713 214.803 194.986 216.227C197.274 217.652 199.827 218.364 202.645 218.364C204.19 218.364 205.675 218.152 207.099 217.727C208.524 217.303 209.819 216.674 210.986 215.841C212.168 214.992 213.168 213.955 213.986 212.727C214.819 211.485 215.402 210.061 215.736 208.455H221.372C220.948 210.833 220.175 212.962 219.054 214.841C217.933 216.72 216.539 218.318 214.872 219.636C213.205 220.939 211.334 221.932 209.259 222.614C207.198 223.295 204.993 223.636 202.645 223.636C198.675 223.636 195.145 222.667 192.054 220.727C188.963 218.788 186.531 216.03 184.759 212.455C182.986 208.879 182.099 204.636 182.099 199.727C182.099 194.818 182.986 190.576 184.759 187C186.531 183.424 188.963 180.667 192.054 178.727C195.145 176.788 198.675 175.818 202.645 175.818C204.993 175.818 207.198 176.159 209.259 176.841C211.334 177.523 213.205 178.523 214.872 179.841C216.539 181.144 217.933 182.735 219.054 184.614C220.175 186.477 220.948 188.606 221.372 191ZM235.116 202V223H229.753V176.455H235.116V193.545H235.571C236.389 191.742 237.616 190.311 239.253 189.25C240.904 188.174 243.101 187.636 245.844 187.636C248.223 187.636 250.306 188.114 252.094 189.068C253.882 190.008 255.268 191.455 256.253 193.409C257.253 195.348 257.753 197.818 257.753 200.818V223H252.389V201.182C252.389 198.409 251.67 196.265 250.23 194.75C248.806 193.22 246.829 192.455 244.298 192.455C242.541 192.455 240.965 192.826 239.571 193.568C238.192 194.311 237.101 195.394 236.298 196.818C235.51 198.242 235.116 199.97 235.116 202ZM282.202 223.727C278.838 223.727 275.937 222.985 273.497 221.5C271.073 220 269.202 217.909 267.884 215.227C266.58 212.53 265.929 209.394 265.929 205.818C265.929 202.242 266.58 199.091 267.884 196.364C269.202 193.621 271.035 191.485 273.384 189.955C275.747 188.409 278.505 187.636 281.656 187.636C283.474 187.636 285.27 187.939 287.043 188.545C288.815 189.152 290.429 190.136 291.884 191.5C293.338 192.848 294.497 194.636 295.361 196.864C296.224 199.091 296.656 201.833 296.656 205.091V207.364H269.747V202.727H291.202C291.202 200.758 290.808 199 290.02 197.455C289.247 195.909 288.141 194.689 286.702 193.795C285.277 192.902 283.596 192.455 281.656 192.455C279.52 192.455 277.671 192.985 276.111 194.045C274.565 195.091 273.376 196.455 272.543 198.136C271.709 199.818 271.293 201.621 271.293 203.545V206.636C271.293 209.273 271.747 211.508 272.656 213.341C273.58 215.159 274.861 216.545 276.497 217.5C278.134 218.439 280.035 218.909 282.202 218.909C283.611 218.909 284.884 218.712 286.02 218.318C287.171 217.909 288.164 217.303 288.997 216.5C289.83 215.682 290.474 214.667 290.929 213.455L296.111 214.909C295.565 216.667 294.649 218.212 293.361 219.545C292.073 220.864 290.482 221.894 288.588 222.636C286.694 223.364 284.565 223.727 282.202 223.727ZM315.088 223.818C312.876 223.818 310.868 223.402 309.065 222.568C307.262 221.72 305.83 220.5 304.77 218.909C303.709 217.303 303.179 215.364 303.179 213.091C303.179 211.091 303.573 209.47 304.361 208.227C305.149 206.97 306.202 205.985 307.52 205.273C308.838 204.561 310.293 204.03 311.884 203.682C313.49 203.318 315.103 203.03 316.724 202.818C318.846 202.545 320.565 202.341 321.884 202.205C323.217 202.053 324.187 201.803 324.793 201.455C325.414 201.106 325.724 200.5 325.724 199.636V199.455C325.724 197.212 325.111 195.47 323.884 194.227C322.671 192.985 320.83 192.364 318.361 192.364C315.8 192.364 313.793 192.924 312.338 194.045C310.884 195.167 309.861 196.364 309.27 197.636L304.179 195.818C305.088 193.697 306.3 192.045 307.815 190.864C309.346 189.667 311.012 188.833 312.815 188.364C314.634 187.879 316.421 187.636 318.179 187.636C319.3 187.636 320.588 187.773 322.043 188.045C323.512 188.303 324.929 188.841 326.293 189.659C327.671 190.477 328.815 191.712 329.724 193.364C330.634 195.015 331.088 197.227 331.088 200V223H325.724V218.273H325.452C325.088 219.03 324.482 219.841 323.634 220.705C322.785 221.568 321.656 222.303 320.247 222.909C318.838 223.515 317.118 223.818 315.088 223.818ZM315.906 219C318.027 219 319.815 218.583 321.27 217.75C322.74 216.917 323.846 215.841 324.588 214.523C325.346 213.205 325.724 211.818 325.724 210.364V205.455C325.497 205.727 324.997 205.977 324.224 206.205C323.467 206.417 322.588 206.606 321.588 206.773C320.603 206.924 319.641 207.061 318.702 207.182C317.777 207.288 317.027 207.379 316.452 207.455C315.058 207.636 313.755 207.932 312.543 208.341C311.346 208.735 310.376 209.333 309.634 210.136C308.906 210.924 308.543 212 308.543 213.364C308.543 215.227 309.232 216.636 310.611 217.591C312.005 218.53 313.77 219 315.906 219ZM340.878 236.091V188.091H346.06V193.636H346.696C347.09 193.03 347.635 192.258 348.332 191.318C349.045 190.364 350.06 189.515 351.378 188.773C352.711 188.015 354.514 187.636 356.787 187.636C359.726 187.636 362.317 188.371 364.56 189.841C366.802 191.311 368.552 193.394 369.81 196.091C371.067 198.788 371.696 201.97 371.696 205.636C371.696 209.333 371.067 212.538 369.81 215.25C368.552 217.947 366.81 220.038 364.582 221.523C362.355 222.992 359.787 223.727 356.878 223.727C354.635 223.727 352.84 223.356 351.491 222.614C350.143 221.856 349.105 221 348.378 220.045C347.651 219.076 347.09 218.273 346.696 217.636H346.241V236.091H340.878ZM346.151 205.545C346.151 208.182 346.537 210.508 347.31 212.523C348.082 214.523 349.211 216.091 350.696 217.227C352.181 218.348 353.999 218.909 356.151 218.909C358.393 218.909 360.264 218.318 361.764 217.136C363.279 215.939 364.416 214.333 365.173 212.318C365.946 210.288 366.332 208.03 366.332 205.545C366.332 203.091 365.954 200.879 365.196 198.909C364.454 196.924 363.325 195.356 361.81 194.205C360.31 193.038 358.423 192.455 356.151 192.455C353.969 192.455 352.135 193.008 350.651 194.114C349.166 195.205 348.045 196.735 347.287 198.705C346.529 200.659 346.151 202.939 346.151 205.545ZM419.878 199.727C419.878 204.636 418.991 208.879 417.219 212.455C415.446 216.03 413.014 218.788 409.923 220.727C406.832 222.667 403.302 223.636 399.332 223.636C395.363 223.636 391.832 222.667 388.741 220.727C385.651 218.788 383.219 216.03 381.446 212.455C379.673 208.879 378.787 204.636 378.787 199.727C378.787 194.818 379.673 190.576 381.446 187C383.219 183.424 385.651 180.667 388.741 178.727C391.832 176.788 395.363 175.818 399.332 175.818C403.302 175.818 406.832 176.788 409.923 178.727C413.014 180.667 415.446 183.424 417.219 187C418.991 190.576 419.878 194.818 419.878 199.727ZM414.423 199.727C414.423 195.697 413.749 192.295 412.401 189.523C411.067 186.75 409.257 184.652 406.969 183.227C404.696 181.803 402.151 181.091 399.332 181.091C396.514 181.091 393.961 181.803 391.673 183.227C389.401 184.652 387.59 186.75 386.241 189.523C384.908 192.295 384.241 195.697 384.241 199.727C384.241 203.758 384.908 207.159 386.241 209.932C387.59 212.705 389.401 214.803 391.673 216.227C393.961 217.652 396.514 218.364 399.332 218.364C402.151 218.364 404.696 217.652 406.969 216.227C409.257 214.803 411.067 212.705 412.401 209.932C413.749 207.159 414.423 203.758 414.423 199.727ZM429.077 176.455L442.895 215.636H443.44L457.259 176.455H463.168L446.077 223H440.259L423.168 176.455H429.077ZM470.418 223V176.455H486.145C489.781 176.455 492.766 177.076 495.099 178.318C497.433 179.545 499.16 181.235 500.281 183.386C501.402 185.538 501.963 187.985 501.963 190.727C501.963 193.47 501.402 195.902 500.281 198.023C499.16 200.144 497.44 201.811 495.122 203.023C492.804 204.22 489.842 204.818 486.236 204.818H473.509V199.727H486.054C488.539 199.727 490.539 199.364 492.054 198.636C493.584 197.909 494.69 196.879 495.372 195.545C496.069 194.197 496.418 192.591 496.418 190.727C496.418 188.864 496.069 187.235 495.372 185.841C494.675 184.447 493.562 183.371 492.031 182.614C490.501 181.841 488.478 181.455 485.963 181.455H476.054V223H470.418ZM492.327 202.091L503.781 223H497.236L485.963 202.091H492.327Z" fill="white"/>
<defs>
<radialGradient id="paint0_radial_0_1" cx="0" cy="0" r="1" gradientUnits="userSpaceOnUse" gradientTransform="translate(300 200) rotate(90) scale(203.5 305.25)">
<stop stop-color="#0A0091"/>
<stop offset="1" stop-color="#2441FF"/>
</radialGradient>
</defs>
</svg>
